<svg width="66" height="66" viewBox="0 0 66 66" fill="none" xmlns="http://www.w3.org/2000/svg">
<circle cx="43.5" cy="50.5" r="0.5" fill="#BBAC64"/>
<circle cx="32.7082" cy="32.7081" r="23.5" transform="rotate(119.509 32.7082 32.7081)" stroke="url(#paint0_linear_129_17)"/>
<path d="M27.0121 38H42.0001V24C42.0001 22.897 41.1031 22 40.0001 22H27.0001C25.7941 22 24.0001 22.799 24.0001 25V39C24.0001 41.201 25.7941 42 27.0001 42H42.0001V40H27.0121C26.5501 39.988 26.0001 39.806 26.0001 39C26.0001 38.899 26.0091 38.809 26.0241 38.727C26.1361 38.151 26.6081 38.01 27.0121 38V38ZM29.6481 27.642C30.0643 27.2311 30.6257 27.0006 31.2106 27.0006C31.7955 27.0006 32.3568 27.2311 32.7731 27.642L32.9971 27.861L33.2201 27.642C33.6365 27.231 34.198 27.0006 34.7831 27.0006C35.3681 27.0006 35.9297 27.231 36.3461 27.642C36.5526 27.8406 36.7169 28.079 36.8292 28.3426C36.9414 28.6063 36.9993 28.8899 36.9993 29.1765C36.9993 29.4631 36.9414 29.7467 36.8292 30.0104C36.7169 30.274 36.5526 30.5124 36.3461 30.711L32.9981 34L29.6491 30.711C29.4423 30.5125 29.2778 30.2743 29.1654 30.0106C29.053 29.747 28.995 29.4633 28.9949 29.1767C28.9948 28.8901 29.0526 28.6064 29.1649 28.3427C29.2771 28.079 29.4414 27.8406 29.6481 27.642V27.642Z" fill="url(#paint1_linear_129_17)"/>
<circle cx="13" cy="13" r="1" fill="#BBAC64"/>
<circle cx="48" cy="46" r="1" fill="#BBAC64"/>
<circle cx="17.5" cy="17.5" r="0.5" fill="#BBAC64"/>
<circle cx="9.5" cy="18.5" r="0.5" fill="#BBAC64"/>
<circle cx="12.5" cy="24.5" r="0.5" fill="#BBAC64"/>
<circle cx="50.5" cy="52.5" r="0.5" fill="#BBAC64"/>
<defs>
<linearGradient id="paint0_linear_129_17" x1="32.7082" y1="8.70811" x2="32.7082" y2="56.7081" gradientUnits="userSpaceOnUse">
<stop stop-color="#B8A74D"/>
<stop offset="1" stop-color="#2C2E59"/>
</linearGradient>
<linearGradient id="paint1_linear_129_17" x1="33.0001" y1="22" x2="33.0001" y2="42" gradientUnits="userSpaceOnUse">
<stop stop-color="#B0A04E"/>
<stop offset="1" stop-color="#CCC18A"/>
</linearGradient>
</defs>
</svg>
