<svg width="88" height="26" viewBox="0 0 88 26" fill="none" xmlns="http://www.w3.org/2000/svg">
<g filter="url(#filter0_d_101_352)">
<path d="M16.6105 12.2716C16.6105 13.0901 16.419 13.7955 16.0358 14.3876C15.6701 14.9623 15.0605 15.4935 14.2072 15.9812C13.6324 16.3295 12.9619 16.5907 12.1956 16.7649C11.4293 16.939 10.6543 17.0261 9.87058 17.0261C9.06945 17.0261 8.07674 16.7649 6.89246 16.2424C6.03908 15.8244 5.35986 15.3281 4.8548 14.7533C4.36715 14.1786 4.12333 13.5516 4.12333 12.8724C4.12333 12.4022 4.22782 12.0626 4.43681 11.8536C4.64581 11.6272 4.98542 11.514 5.45565 11.514C5.69947 11.514 5.952 11.6185 6.21324 11.8275C6.47448 12.019 6.63122 12.2106 6.68347 12.4022C6.92729 13.1162 7.35398 13.6648 7.96354 14.048C8.5731 14.4137 9.33069 14.5966 10.2363 14.5966C11.2813 14.5966 12.1521 14.405 12.8487 14.0219C13.5628 13.6387 13.9198 13.125 13.9198 12.4806C13.9198 11.8536 13.5366 11.2963 12.7703 10.8086C12.004 10.321 11.2203 9.98138 10.4192 9.7898C9.26973 9.47632 8.2509 9.10188 7.36269 8.66648C6.43965 8.21366 5.75172 7.65635 5.2989 6.99455C4.84609 6.33274 4.61968 5.63611 4.61968 4.90464C4.61968 4.22542 4.8548 3.53749 5.32503 2.84085C5.79526 2.1268 6.35257 1.61303 6.99696 1.29954C7.34527 1.12538 7.93742 0.942513 8.77338 0.750937C9.62676 0.541947 10.245 0.437451 10.6282 0.437451C11.1332 0.437451 11.6905 0.498407 12.3001 0.620318C12.9097 0.74223 13.406 0.916389 13.7892 1.1428C14.5555 1.57819 15.1215 1.97005 15.4872 2.31837C15.853 2.66669 16.0358 3.10209 16.0358 3.62457C16.0358 3.93805 15.9139 4.21671 15.6701 4.46053C15.4437 4.70435 15.0431 4.82626 14.4684 4.82626C14.3291 4.82626 14.1897 4.76531 14.0504 4.6434C13.9111 4.52149 13.7369 4.33862 13.5279 4.0948C13.2493 3.72906 12.9793 3.48524 12.7181 3.36333C12.4569 3.27625 12.0737 3.18046 11.5686 3.07596C11.081 2.97147 10.6456 2.91922 10.2624 2.91922C9.84446 2.91922 9.40906 3.0063 8.95625 3.18046C8.50343 3.35462 8.12028 3.60715 7.8068 3.93805C7.51073 4.25154 7.36269 4.61727 7.36269 5.03526C7.36269 5.38357 7.51943 5.68835 7.83292 5.94959C8.16382 6.19342 8.55568 6.3937 9.0085 6.55044C9.53097 6.75943 10.097 6.9423 10.7065 7.09904C11.5077 7.34287 12.1608 7.56927 12.6658 7.77827C13.1883 7.96984 13.6934 8.21366 14.181 8.50973C15.0344 9.0148 15.6527 9.53727 16.0358 10.0772C16.419 10.5996 16.6105 11.3311 16.6105 12.2716ZM20.3861 0.22846C20.9956 0.280707 21.5268 0.446158 21.9796 0.724814C22.4324 0.986052 22.6588 1.38662 22.6588 1.92651C22.6588 2.32708 22.4673 2.64927 22.0841 2.8931C21.7184 3.1195 21.2743 3.23271 20.7518 3.23271C20.2467 3.23271 19.8984 3.10209 19.7068 2.84085C19.5153 2.57961 19.4195 2.30966 19.4195 2.03101C19.4195 1.50853 19.4717 1.07313 19.5762 0.724814C19.6981 0.376495 19.9681 0.211044 20.3861 0.22846ZM22.476 11.8013V12.5589C22.476 13.2382 22.4934 13.8825 22.5282 14.4921C22.5805 15.0842 22.6414 15.6851 22.7111 16.2947C22.6937 16.4688 22.5631 16.6517 22.3192 16.8433C22.0754 17.0174 21.8577 17.1045 21.6661 17.1045C21.3352 17.1045 20.9956 17.0435 20.6473 16.9216C20.3164 16.7823 20.1161 16.6168 20.0465 16.4253C19.942 15.868 19.8897 15.3716 19.8897 14.9362C19.8897 13.5081 19.8462 11.9058 19.7591 10.1294C19.6894 8.56198 19.6546 7.46478 19.6546 6.8378C19.6546 6.52432 19.8113 6.25437 20.1248 6.02796C20.4383 5.80156 20.7692 5.68835 21.1175 5.68835C21.6226 5.68835 21.9709 5.80156 22.1625 6.02796C22.3715 6.25437 22.476 6.6114 22.476 7.09904V11.8013ZM37.6503 14.9885C37.7374 15.0233 37.8767 15.0668 38.0683 15.1191C38.2598 15.1713 38.3992 15.2236 38.4862 15.2758C38.5733 15.3281 38.6169 15.4064 38.6169 15.5109C38.6343 15.9289 38.4775 16.2772 38.1466 16.5559C37.8332 16.8171 37.4587 16.9478 37.0233 16.9478C36.3441 16.9478 35.8129 16.7649 35.4298 16.3992C35.0466 16.0334 34.7679 15.4761 34.5938 14.7272C34.5241 14.4312 34.4893 14.0219 34.4893 13.4994C34.4893 13.2033 34.5067 12.7244 34.5415 12.0626C34.5764 11.3659 34.5938 10.8086 34.5938 10.3907C34.5938 9.7811 34.4196 9.24991 34.0713 8.7971C33.7404 8.32687 33.2702 8.09175 32.6606 8.09175C32.2949 8.09175 31.9117 8.20496 31.5112 8.43136C31.1106 8.64035 30.8319 8.90159 30.6752 9.21508C30.414 9.72014 30.2311 10.2687 30.1266 10.8609C29.935 11.9058 29.8392 12.9943 29.8392 14.1264C29.8392 14.6663 29.8479 15.0842 29.8654 15.3803C29.8654 15.45 29.8654 15.5893 29.8654 15.7983C29.8828 15.9899 29.8654 16.1727 29.8131 16.3469C29.7783 16.5036 29.7086 16.6517 29.6041 16.791C29.517 16.8781 29.3777 16.9478 29.1861 17C29.012 17.0697 28.8465 17.1045 28.6898 17.1045C28.446 17.1045 28.1412 17 27.7755 16.791C27.4097 16.582 27.2007 16.3469 27.1485 16.0857L27.1224 15.6416C27.1224 15.4848 27.1398 15.3019 27.1746 15.093C27.3836 13.8738 27.4881 12.8115 27.4881 11.9058C27.4881 11.5053 27.4794 11.1918 27.462 10.9654L27.4358 9.73756C27.4358 9.31957 27.3313 8.91901 27.1224 8.53586C26.9134 8.13529 26.6695 7.93501 26.3909 7.93501C26.3038 7.93501 26.1819 7.96984 26.0252 8.0395C25.8684 8.09175 25.7378 8.11788 25.6333 8.11788C25.4591 8.11788 25.2676 8.0308 25.0586 7.85664C24.867 7.68248 24.7712 7.49961 24.7712 7.30803C24.7712 6.9423 24.8931 6.64623 25.1369 6.41982C25.3982 6.21083 25.6507 6.04538 25.8945 5.92347C26.1558 5.80156 26.4518 5.7406 26.7827 5.7406C27.0614 5.7406 27.2878 5.76672 27.462 5.81897C27.6361 5.87122 27.8712 5.98442 28.1673 6.15858C28.3241 6.24566 28.5069 6.43724 28.7159 6.73331C28.9249 7.02938 29.0991 7.44736 29.2384 7.98726C29.6912 7.15129 30.2485 6.56786 30.9103 6.23695C31.5895 5.88864 32.4516 5.71448 33.4966 5.71448C33.8972 5.71448 34.3238 5.8451 34.7767 6.10634C35.2469 6.36757 35.6475 6.67235 35.9784 7.02067C36.2918 7.40382 36.5531 7.88276 36.7621 8.45749C36.9711 9.0148 37.0756 9.51986 37.0756 9.97267C37.0756 10.2339 37.0581 10.6606 37.0233 11.2527C36.9711 11.723 36.9449 12.2193 36.9449 12.7418C36.9449 13.9609 37.1801 14.7098 37.6503 14.9885ZM50.4361 17.1045C49.844 17.1045 49.3911 17.0174 49.0777 16.8433C48.7642 16.6517 48.4246 16.3034 48.0588 15.7983C47.606 16.1989 46.9268 16.5211 46.0212 16.7649C45.1329 17.0087 44.3666 17.1306 43.7223 17.1306C42.6599 17.1306 41.7978 16.8433 41.136 16.2685C40.4916 15.6764 40.1694 14.8143 40.1694 13.6823C40.1694 13.1946 40.3 12.7505 40.5613 12.3499C40.8399 11.932 41.1969 11.5662 41.6323 11.2527C42.12 10.9218 42.6947 10.6606 43.3565 10.469C44.0357 10.2775 44.654 10.1817 45.2113 10.1817C46.1518 10.1817 46.9877 10.2687 47.7192 10.4429V10.4168C47.7192 9.47632 47.4841 8.83193 47.0139 8.48361C46.561 8.11788 45.8296 7.93501 44.8195 7.93501C44.1751 7.93501 43.6178 8.22237 43.1475 8.7971C42.9734 9.0235 42.6076 9.13671 42.0503 9.13671C41.7717 9.13671 41.5627 9.0235 41.4233 8.7971C41.3014 8.55327 41.2405 8.30945 41.2405 8.06563C41.2405 7.56057 41.4495 7.12517 41.8675 6.75943C42.3029 6.3937 42.8253 6.12375 43.4349 5.94959C44.0444 5.75802 44.6105 5.66223 45.1329 5.66223C45.638 5.66223 46.2389 5.76673 46.9355 5.97572C47.6321 6.18471 48.1981 6.46336 48.6335 6.81168C49.156 7.2645 49.5566 7.79568 49.8352 8.40524C50.1313 8.99738 50.2793 9.65048 50.2793 10.3645C50.2793 10.5909 50.2619 10.9305 50.2271 11.3834C50.1923 11.9058 50.1749 12.3325 50.1749 12.6634C50.1749 12.8202 50.1574 13.0205 50.1226 13.2643C50.0878 13.5778 50.0704 13.839 50.0704 14.048C50.0704 14.2744 50.14 14.4921 50.2793 14.7011C50.4187 14.9101 50.6103 15.0842 50.8541 15.2236C51.0805 15.3455 51.2285 15.4761 51.2982 15.6154C51.3678 15.7548 51.4027 15.9115 51.4027 16.0857C51.4027 16.2598 51.2895 16.4775 51.0631 16.7388C50.8541 16.9826 50.6451 17.1045 50.4361 17.1045ZM45.2113 12.1148C44.5321 12.1148 43.9312 12.2455 43.4088 12.5067C42.8863 12.7679 42.625 13.2295 42.625 13.8913C42.625 14.2222 42.7383 14.5008 42.9647 14.7272C43.2085 14.9536 43.4697 15.0668 43.7484 15.0668C44.4973 15.0668 45.1242 14.9885 45.6293 14.8317C46.1344 14.675 46.7439 14.3876 47.458 13.9696C47.545 13.691 47.5973 13.2991 47.6147 12.7941C47.6147 12.6025 47.6234 12.4544 47.6408 12.3499C46.7004 12.1932 45.8905 12.1148 45.2113 12.1148ZM53.0795 8.19625C52.9402 8.19625 52.8183 8.144 52.7138 8.0395C52.6093 7.91759 52.557 7.77826 52.557 7.62152C52.557 7.11646 52.7225 6.73331 53.0534 6.47207C53.3843 6.19342 53.7936 6.05409 54.2812 6.05409C54.9604 6.05409 55.5439 6.23695 56.0315 6.60269C56.5366 6.95101 56.7891 7.45607 56.7891 8.11788C56.7891 8.29204 56.7543 8.95384 56.6846 10.1033C56.6149 11.4269 56.5801 12.3064 56.5801 12.7418C56.5801 13.3514 56.6933 13.8477 56.9197 14.2309C57.1635 14.5966 57.538 14.7795 58.043 14.7795C59.0183 14.7795 59.7672 14.2396 60.2897 13.1598C60.8296 12.0626 61.1866 10.7216 61.3608 9.13671C61.4304 8.44007 61.5349 7.7086 61.6743 6.9423C61.7439 6.52432 61.8397 6.21954 61.9616 6.02796C62.0835 5.83639 62.3187 5.7406 62.667 5.7406C62.8934 5.7406 63.1546 5.79285 63.4507 5.89734C63.7642 6.00184 63.9645 6.14117 64.0515 6.31533C64.156 6.57657 64.2083 6.86393 64.2083 7.17742C64.2083 7.61281 64.1473 8.17883 64.0254 8.87547C63.8861 9.57211 63.7903 10.3297 63.7381 11.1482C63.7032 11.8797 63.8164 12.646 64.0777 13.4472C64.3389 14.2483 64.7133 14.7708 65.201 15.0146C65.7583 15.2932 66.037 15.5458 66.037 15.7722C66.037 16.1379 65.9063 16.4253 65.6451 16.6343C65.3839 16.8433 65.1313 16.9478 64.8875 16.9478C64.2431 16.9478 63.6597 16.7126 63.1372 16.2424C62.6321 15.7722 62.2664 15.1887 62.04 14.4921C61.6743 15.0494 61.3172 15.5109 60.9689 15.8767C60.638 16.225 60.2113 16.5211 59.6888 16.7649C59.1664 16.9913 58.522 17.1045 57.7557 17.1045C56.8501 17.1045 56.0228 16.7823 55.2739 16.1379C54.5424 15.4935 54.1767 14.3876 54.1767 12.8202C54.1767 12.3848 54.1854 11.9233 54.2028 11.4356C54.2377 10.948 54.2551 10.5996 54.2551 10.3907C54.3073 9.76368 54.3335 9.18896 54.3335 8.66648C54.3335 8.50973 54.2725 8.37911 54.1506 8.27462C54.0461 8.17012 53.9242 8.11788 53.7848 8.11788C53.6804 8.11788 53.5584 8.13529 53.4191 8.17012C53.2972 8.18754 53.184 8.19625 53.0795 8.19625ZM79.9522 10.7825C80.0567 10.3994 80.1699 9.87688 80.2918 9.21508C80.466 8.43136 80.6053 7.83922 80.7098 7.43865C80.8143 7.03809 80.9536 6.69848 81.1278 6.41982C81.3194 6.10634 81.4848 5.89734 81.6241 5.79285C81.7809 5.68835 81.9463 5.63611 82.1205 5.63611C83.0261 5.63611 83.4789 5.98442 83.4789 6.68106C83.4789 7.02938 83.3396 7.68248 83.061 8.64035C82.1379 11.4269 81.4761 13.5865 81.0755 15.1191C80.9014 15.7635 80.6401 16.2598 80.2918 16.6081C79.9435 16.939 79.4733 17.1045 78.8811 17.1045C78.5851 17.1045 78.2803 16.9652 77.9668 16.6865C77.6707 16.3904 77.4269 16.0334 77.2353 15.6154L76.948 14.9101C76.4603 13.6736 76.0946 12.7244 75.8508 12.0626C75.6244 11.3834 75.4763 10.7738 75.4067 10.2339L75.1715 11.0699C74.7536 12.5676 74.3182 13.9609 73.8653 15.2497C73.6389 15.9115 73.3603 16.3904 73.0294 16.6865C72.6985 16.9652 72.2718 17.1045 71.7493 17.1045C71.4358 17.1045 71.1572 17.0348 70.9133 16.8955C70.6869 16.7562 70.4692 16.5211 70.2603 16.1902C69.9816 15.7373 69.7116 15.1278 69.4504 14.3615C69.2066 13.5952 68.8496 12.4022 68.3793 10.7825C68.1529 10.0859 67.9439 9.35441 67.7524 8.58811C67.5608 7.80439 67.465 7.25579 67.465 6.9423C67.465 6.57657 67.5608 6.2892 67.7524 6.08021C67.9439 5.87122 68.2226 5.76673 68.5883 5.76673C69.0586 5.76673 69.3895 5.86251 69.581 6.05409C69.7726 6.22825 69.9468 6.49819 70.1035 6.86393C70.1906 7.4909 70.3822 8.37911 70.6782 9.52857L71.253 11.9842C71.2878 12.1758 71.3923 12.5764 71.5664 13.1859L71.7754 13.9435C72.1586 13.125 72.4808 12.3412 72.742 11.5924C73.0033 10.8435 73.2906 9.92042 73.6041 8.82322C73.6215 8.75356 73.7957 8.15271 74.1266 7.02067C74.353 6.65494 74.5533 6.38499 74.7274 6.21083C74.9016 6.01926 75.0758 5.92347 75.2499 5.92347C75.5982 5.92347 75.8943 6.03667 76.1381 6.26308C76.3994 6.47207 76.5909 6.73331 76.7129 7.0468C76.9218 7.72602 77.1047 8.34428 77.2615 8.90159C77.3311 9.128 77.4879 9.6766 77.7317 10.5474C77.9929 11.4008 78.228 12.1235 78.437 12.7157C78.646 13.3078 78.8202 13.7258 78.9595 13.9696L79.9522 10.7825Z" fill="url(#paint0_linear_101_352)"/>
</g>
<defs>
<filter id="filter0_d_101_352" x="0.123327" y="0.202393" width="87.3556" height="24.9282" filterUnits="userSpaceOnUse" color-interpolation-filters="sRGB">
<feFlood flood-opacity="0" result="BackgroundImageFix"/>
<feColorMatrix in="SourceAlpha" type="matrix" values="0 0 0 0 0 0 0 0 0 0 0 0 0 0 0 0 0 0 127 0" result="hardAlpha"/>
<feOffset dy="4"/>
<feGaussianBlur stdDeviation="2"/>
<feComposite in2="hardAlpha" operator="out"/>
<feColorMatrix type="matrix" values="0 0 0 0 0 0 0 0 0 0 0 0 0 0 0 0 0 0 0.25 0"/>
<feBlend mode="normal" in2="BackgroundImageFix" result="effect1_dropShadow_101_352"/>
<feBlend mode="normal" in="SourceGraphic" in2="effect1_dropShadow_101_352" result="shape"/>
</filter>
<linearGradient id="paint0_linear_101_352" x1="44" y1="-12" x2="44" y2="27.1858" gradientUnits="userSpaceOnUse">
<stop stop-color="#C7CAFE"/>
<stop offset="1" stop-color="#3D408F"/>
</linearGradient>
</defs>
</svg>
